<?xml version="1.0" standalone="no"?>
<svg viewBox="0 0 200 200" xmlns="http://www.w3.org/2000/svg">
  <path fill="#08BDBA" d="M39.9,-70.1C52.8,-61.6,65.1,-53.1,69.4,-41.5C73.8,-29.8,70.3,-14.9,70.8,0.3C71.4,15.5,76.1,31.1,70.6,40.9C65.1,50.7,49.6,54.8,36.1,62.8C22.6,70.8,11.3,82.8,-0.7,84C-12.8,85.3,-25.5,75.8,-34.8,65.3C-44.1,54.9,-49.9,43.6,-58.5,32.5C-67,21.5,-78.2,10.7,-80.3,-1.2C-82.4,-13.2,-75.4,-26.3,-68.6,-40.4C-61.8,-54.5,-55.3,-69.5,-43.9,-78.8C-32.5,-88.1,-16.3,-91.8,-1.4,-89.4C13.5,-87,27,-78.5,39.9,-70.1Z" transform="translate(100 100)" />
</svg>
